<svg id="Layer_1_copy_3" data-name="Layer 1 copy 3" xmlns="http://www.w3.org/2000/svg" viewBox="0 0 121.58 174.06"><defs><style>.cls-1{fill:#cea357;}</style></defs><title>w-2-for-svg</title><path class="cls-1" d="M131.32,43.11l-13.5,105.15H81.14q-3-19.27-7-50.8-1.38,13.88-3.8,28l-3.71,22.82H29.85L15.52,43.11H44.65Q45,47.22,52,103.33q.55-5.77,7.59-60.22h28l6.84,60.22a523.08,523.08,0,0,1,7.75-60.22Z" transform="translate(-15.52 -11.52)"/><path d="M94.93,26.12c8.74-6.69,20.73-7.53,31-4.5,2.74.8,6-1.1,8.06-2.76.74-.6,4.82-4.62,2.2-5.39-16.56-4.87-33.67-.31-47.18,10-1.28,1-4.37,3.89-2.19,5.38s6.61-1.64,8.07-2.76Z" transform="translate(-15.52 -11.52)"/><path d="M82.08,115.45l6.35-7.86-5.38,2.61a113.45,113.45,0,0,0,38.81,8.8c2.45.1,5.55-2.74,6.59-5.84,1.66-4.91,1.55-10-.45-11.65s-7.13-2.88-10,0c-1,1-2.43,1.64-1.09,3.16s4.46-1.69,5.38-2.61l.87-.87-4,2.72c5.26-1.57,2.64,10,1.69,12.85l6.59-5.84a106.44,106.44,0,0,1-29.56-5.37c-3.16-1.06-7.12-4.06-10.36-2.82-3.58,1.37-6.68,6.9-9.38,10.24-4.59,5.68.92,6.19,3.91,2.48Z" transform="translate(-15.52 -11.52)"/><path d="M65.79,115.45l-6.34-7.86,5.38,2.61A113.45,113.45,0,0,1,26,119c-2.45.1-5.55-2.74-6.59-5.84-1.66-4.91-2.39-7,1.57-10.81,3.32-3.24,7-3.86,8.51-2.77s2.8,3.57,1.46,5.09-4.47-1.69-5.38-2.61l-.87-.87,4,2.72c-5.26-1.57-2.64,10-1.69,12.85l-6.59-5.84A106.31,106.31,0,0,0,50,105.55c3.17-1.06,7.13-4.06,10.37-2.82,3.58,1.37,6.68,6.9,9.38,10.24,4.58,5.68-.92,6.19-3.92,2.48Z" transform="translate(-15.52 -11.52)"/><path d="M73.53,170.8c1.25.24,27,13.31,27,13.31l1.14-28.23s-18.52,10.17-27.07,15c-.56.31-4.75-.4-5.27-.67C62.58,166.67,49.37,159,49.37,159l-2.74,23Z" transform="translate(-15.52 -11.52)"/><path d="M71.82,172.15c4.8,1.43,9.5,4.52,14,6.75s8.69,4.37,13,6.57c1.08.55,3.63-1.15,3.68-2.3l1.14-28.23c0-.91-1.62-.3-1.93-.13q-12.5,6.85-25,13.76c-4.57,2.54-10.23-2.17-14.26-4.42q-5.72-3.21-11.39-6.49c-1.1-.63-3.55,1.21-3.68,2.3L44.66,183c-.11.93,1.69.23,1.94.13l26.9-11.28c1.82-.76,2.89-3.33.07-2.14L46.67,181l1.93.13,2.74-23-3.68,2.3q6.53,3.78,13.12,7.45c3.76,2.08,8.62,5.63,13.25,4.27,2.3-.67,4.61-2.49,6.7-3.65l8.89-4.91,12-6.59-1.94-.13-1.14,28.23,3.68-2.3q-6.49-3.3-13-6.56c-4.45-2.23-9.15-5.33-14-6.75C73.93,169.05,70.76,171.84,71.82,172.15Z" transform="translate(-15.52 -11.52)"/></svg>